<svg width="24" height="24" viewBox="0 0 24 24" xmlns="http://www.w3.org/2000/svg"><path d="M7.934 2H16.066c.886 0 1.65 0 2.262.082.655.088 1.284.287 1.793.797.51.51.709 1.138.797 1.793C21 5.284 21 6.048 21 6.934V17.066c0 .886 0 1.65-.082 2.262-.088.655-.287 1.284-.797 1.793-.51.51-1.138.709-1.793.797-.612.082-1.376.082-2.262.082H6.5A3.5 3.5 0 0 1 3 18.5V7v-.066c0-.886 0-1.65.082-2.262.088-.655.287-1.284.797-1.793.51-.51 1.138-.709 1.793-.797C6.284 2 7.048 2 7.934 2zM5 15.337V7c0-.971.002-1.599.064-2.061.059-.434.153-.57.229-.646.076-.076.212-.17.646-.229C6.4 4.002 7.029 4 8 4h8c.971 0 1.599.002 2.061.064.434.059.57.153.646.229.076.076.17.212.229.646C18.998 5.4 19 6.029 19 7v5c0 .971-.002 1.599-.064 2.061-.059.434-.153.57-.229.646-.076.076-.212.17-.646.229-.462.062-1.09.064-2.061.064H6.5c-.537 0-1.045.12-1.5.337zm14 1.44a4.28 4.28 0 0 1-.672.14c-.612.083-1.376.083-2.262.083H6.5a1.5 1.5 0 0 0 0 3H16c.971 0 1.599-.002 2.061-.064.434-.059.57-.153.646-.229.076-.076.17-.212.229-.646.062-.462.064-1.09.064-2.061v-.223z"/><path d="M8 8a1 1 0 0 1 1-1h6a1 1 0 1 1 0 2H9a1 1 0 0 1-1-1z"/></svg>