<svg width="24" height="24" viewBox="0 0 24 24" fill="none" xmlns="http://www.w3.org/2000/svg">
<path fill-rule="evenodd" clip-rule="evenodd" d="M8 2L7.93417 2C7.04769 1.99995 6.28387 1.99991 5.67221 2.08215C5.0167 2.17028 4.38835 2.36902 3.87868 2.87868C3.36902 3.38835 3.17028 4.0167 3.08215 4.67221C2.99991 5.28387 2.99995 6.04769 3 6.93417L3 7V18.5C3 20.433 4.56701 22 6.5 22L16.0658 22C16.9523 22.0001 17.7161 22.0001 18.3278 21.9179C18.9833 21.8297 19.6117 21.631 20.1213 21.1213C20.631 20.6117 20.8297 19.9833 20.9179 19.3278C21.0001 18.7161 21.0001 17.9523 21 17.0658L21 12.2027L21 12.0658V6.9342C21.0001 6.0477 21.0001 5.28388 20.9179 4.67221C20.8297 4.0167 20.631 3.38835 20.1213 2.87868C19.6117 2.36902 18.9833 2.17028 18.3278 2.08215C17.7161 1.99991 16.9523 1.99995 16.0658 2L8 2ZM5 7V15.3368C5.45463 15.1209 5.96321 15 6.5 15H16C16.9711 15 17.5988 14.9979 18.0613 14.9357C18.495 14.8774 18.631 14.7832 18.7071 14.7071C18.7832 14.631 18.8774 14.495 18.9357 14.0613C18.9979 13.5988 19 12.9711 19 12V7C19 6.02893 18.9979 5.40122 18.9357 4.93871C18.8774 4.50497 18.7832 4.36902 18.7071 4.2929C18.631 4.21677 18.495 4.12263 18.0613 4.06431C17.5988 4.00213 16.9711 4 16 4H8C7.02893 4 6.40122 4.00213 5.93871 4.06431C5.50497 4.12263 5.36902 4.21677 5.2929 4.2929C5.21677 4.36902 5.12263 4.50497 5.06431 4.93871C5.00213 5.40122 5 6.02893 5 7ZM18.3278 16.9179C18.5565 16.8871 18.7818 16.8429 19 16.7767V17C19 17.9711 18.9979 18.5988 18.9357 19.0613C18.8774 19.495 18.7832 19.631 18.7071 19.7071C18.631 19.7832 18.495 19.8774 18.0613 19.9357C17.5988 19.9979 16.9711 20 16 20H6.5C5.67158 20 5 19.3284 5 18.5C5 17.6716 5.67158 17 6.5 17L16.0658 17C16.9523 17.0001 17.7161 17.0001 18.3278 16.9179ZM9 7C8.44772 7 8 7.44772 8 8C8 8.55228 8.44772 9 9 9L15 9C15.5523 9 16 8.55229 16 8C16 7.44772 15.5523 7 15 7L9 7Z" fill="black"/>
</svg>
