<svg width="24" height="24" viewBox="0 0 24 24" xmlns="http://www.w3.org/2000/svg"><path d="M8 21a1 1 0 0 1 1-1h6a1 1 0 1 1 0 2H9a1 1 0 0 1-1-1z"/><path d="M12 15a1 1 0 0 1 1 1v5a1 1 0 1 1-2 0v-5a1 1 0 0 1 1-1z"/><mask><path d="M5 9.286c0-.266 0-.399.025-.509a1 1 0 0 1 .752-.752C5.887 8 6.02 8 6.286 8h11.428c.266 0 .399 0 .509.025a1 1 0 0 1 .752.752c.025.11.025.243.025.509V10c0 .929 0 1.393-.051 1.783a6 6 0 0 1-5.166 5.166C13.393 17 12.93 17 12 17c-.929 0-1.393 0-1.783-.051a6 6 0 0 1-5.166-5.166C5 11.393 5 10.93 5 10v-.714z"/></mask><path d="M5 9.286c0-.266 0-.399.025-.509a1 1 0 0 1 .752-.752C5.887 8 6.02 8 6.286 8h11.428c.266 0 .399 0 .509.025a1 1 0 0 1 .752.752c.025.11.025.243.025.509V10c0 .929 0 1.393-.051 1.783a6 6 0 0 1-5.166 5.166C13.393 17 12.93 17 12 17v0c-.929 0-1.393 0-1.783-.051a6 6 0 0 1-5.166-5.166C5 11.393 5 10.93 5 10v-.714z" stroke="#000" stroke-width="4" stroke-linecap="round" mask="url(#a)"/><path d="M19.371 3.928l-4.089 1.636c-.24.096-.36.145-.443.187l-.004.002a6.489 6.489 0 0 0-.143.465l-1.73 6.057a1 1 0 1 1-1.923-.55l1.73-6.057.027-.096c.1-.357.228-.813.546-1.166.318-.352.759-.526 1.104-.662l.093-.037 4.09-1.635.742 1.856z"/></svg>