<svg width="24" height="24" viewBox="0 0 24 24" fill="none" xmlns="http://www.w3.org/2000/svg"><path fill-rule="evenodd" clip-rule="evenodd" d="M15.2822 5.56417L19.3714 3.92849L18.6286 2.07153L14.5394 3.70722C14.5093 3.71925 14.4782 3.7315 14.4464 3.74406C14.101 3.88016 13.6603 4.05384 13.3422 4.4062C13.0241 4.75857 12.8963 5.21473 12.7962 5.57218C12.7869 5.60518 12.7779 5.63733 12.769 5.66849L12.1029 8H6.28571C6.02012 8 5.88733 8 5.77748 8.02507C5.40298 8.11055 5.11055 8.40298 5.02507 8.77748C5 8.88733 5 9.02012 5 9.28571V10C5 10.9288 5 11.3933 5.05133 11.7832C5.40579 14.4756 7.52444 16.5942 10.2168 16.9487C10.4329 16.9771 10.6718 16.9898 11 16.9955V20H9C8.44772 20 8 20.4477 8 21C8 21.5523 8.44772 22 9 22H12H15C15.5523 22 16 21.5523 16 21C16 20.4477 15.5523 20 15 20H13V16.9955C13.3282 16.9898 13.5671 16.9771 13.7832 16.9487C16.4756 16.5942 18.5942 14.4756 18.9487 11.7832C19 11.3933 19 10.9288 19 10V9.28571C19 9.02012 19 8.88733 18.9749 8.77748C18.8895 8.40298 18.597 8.11055 18.2225 8.02507C18.1127 8 17.9799 8 17.7143 8H14.1829L14.6921 6.21793C14.7629 5.97003 14.7995 5.84516 14.8328 5.75787L14.8346 5.75336L14.8389 5.75118C14.9223 5.70906 15.0428 5.65993 15.2822 5.56417ZM11.5314 10L11.0385 11.7253C10.8868 12.2563 11.1943 12.8098 11.7253 12.9615C12.2563 13.1133 12.8098 12.8058 12.9615 12.2747L13.6115 10H17C17 10.9924 16.9957 11.2949 16.9658 11.5221C16.7295 13.317 15.317 14.7295 13.5221 14.9658C13.2949 14.9957 12.9924 15 12 15C11.0076 15 10.7051 14.9957 10.4779 14.9658C8.68296 14.7295 7.27053 13.317 7.03422 11.5221C7.00431 11.2949 7 10.9924 7 10H11.5314Z" fill="black"/></svg>
