<svg width="24" height="24" viewBox="0 0 24 24" fill="none" xmlns="http://www.w3.org/2000/svg"><path fill-rule="evenodd" clip-rule="evenodd" d="M10 1C10.5523 1 11 1.44772 11 2V2.93845C11 3.46194 11.0055 3.57042 11.0224 3.64912C11.0868 3.94788 11.2843 4.2008 11.5585 4.33572C11.6308 4.37126 11.7347 4.40289 12.2425 4.52986L12.3023 4.54479L12.3736 4.56259C12.7069 4.64564 12.9967 4.71786 13.2536 4.83604C14.1348 5.24133 14.7655 6.04753 14.947 7H15.5625C16.682 6.99997 17.6132 6.99994 18.3618 7.09202C19.1507 7.18904 19.8595 7.40001 20.4682 7.9095C20.7444 8.14076 20.9894 8.4086 21.198 8.7051C21.6484 9.34541 21.8316 10.0802 21.9172 10.9084C22 11.7098 22 12.7124 22 13.9454V14.0546C22 15.2876 22 16.2902 21.9172 17.0916C21.8316 17.9199 21.6484 18.6546 21.198 19.2949C20.9894 19.5914 20.7444 19.8592 20.4682 20.0905C19.8595 20.6 19.1507 20.811 18.3618 20.908C17.6132 21.0001 16.6821 21 15.5625 21H15.5625H8.43752H8.43747C7.31792 21 6.38682 21.0001 5.63817 20.908C4.84929 20.811 4.14048 20.6 3.53184 20.0905C3.25556 19.8592 3.01056 19.5914 2.80201 19.2949C2.35163 18.6546 2.16838 17.9199 2.08279 17.0916C1.99997 16.2902 1.99998 15.2876 2 14.0546V14.0546V13.9454V13.9454C1.99998 12.7124 1.99997 11.7098 2.08279 10.9084C2.16838 10.0802 2.35163 9.34541 2.80201 8.7051C3.01056 8.4086 3.25556 8.14076 3.53184 7.9095C4.14048 7.40001 4.84929 7.18904 5.63817 7.09202C6.38684 6.99994 7.31796 6.99997 8.43755 7H12.8274C12.7265 6.85124 12.5858 6.7303 12.4179 6.65305C12.3538 6.62358 12.2623 6.59635 11.8172 6.48507L11.7575 6.47014L11.6761 6.44985C11.296 6.35517 10.9652 6.27278 10.6756 6.13027C9.8529 5.7255 9.26049 4.96675 9.06733 4.07046C8.99933 3.75491 8.99962 3.41404 8.99995 3.02232L9 2.93845V2C9 1.44772 9.44772 1 10 1ZM8 11C7.44772 11 7 11.4477 7 12V13H6C5.44772 13 5 13.4477 5 14C5 14.5523 5.44772 15 6 15H7V16C7 16.5523 7.44772 17 8 17C8.55228 17 9 16.5523 9 16V15H10C10.5523 15 11 14.5523 11 14C11 13.4477 10.5523 13 10 13H9V12C9 11.4477 8.55228 11 8 11ZM14 14C13.4477 14 13 14.4477 13 15C13 15.5523 13.4477 16 14 16C14.5523 16 15 15.5523 15 15C15 14.4477 14.5523 14 14 14ZM17 12C16.4477 12 16 12.4477 16 13C16 13.5523 16.4477 14 17 14C17.5523 14 18 13.5523 18 13C18 12.4477 17.5523 12 17 12ZM4.8156 9.44311C5.01487 9.27629 5.29642 9.14912 5.8823 9.07706C6.49453 9.00177 7.30189 9 8.5 9H15.5C16.6981 9 17.5055 9.00177 18.1177 9.07706C18.7036 9.14912 18.9851 9.27629 19.1844 9.44311C19.3241 9.56006 19.4515 9.69842 19.5621 9.85574C19.7317 10.0968 19.8584 10.4424 19.9278 11.114C19.9987 11.8005 20 12.6992 20 14C20 15.3008 19.9987 16.1995 19.9278 16.886C19.8584 17.5576 19.7317 17.9032 19.5621 18.1443C19.4515 18.3016 19.3241 18.4399 19.1844 18.5569C18.9851 18.7237 18.7036 18.8509 18.1177 18.9229C17.5055 18.9982 16.6981 19 15.5 19H8.5C7.30189 19 6.49453 18.9982 5.8823 18.9229C5.29642 18.8509 5.01487 18.7237 4.8156 18.5569C4.67588 18.4399 4.54852 18.3016 4.43787 18.1443C4.26831 17.9032 4.14159 17.5576 4.0722 16.886C4.00125 16.1995 4 15.3008 4 14C4 12.6992 4.00125 11.8005 4.0722 11.114C4.14159 10.4424 4.26831 10.0968 4.43787 9.85574C4.54852 9.69842 4.67588 9.56006 4.8156 9.44311Z" fill="black"/></svg>
