<svg width="24" height="24" viewBox="0 0 24 24" xmlns="http://www.w3.org/2000/svg"><rect x="13" y="14" width="2" height="2" rx="1"/><rect x="7" y="11" width="2" height="6" rx="1"/><rect x="11" y="13" width="2" height="6" rx="1"/><rect x="16" y="12" width="2" height="2" rx="1"/><path d="M10 1a1 1 0 0 1 1 1v.938c0 .524.005.632.022.711a1 1 0 0 0 .537.687c.072.035.176.067.684.194l.06.015.07.018c.334.083.624.155.88.273a3 3 0 0 1 1.695 2.17c.053.278.052.577.052.92V8h-2c0-.459-.004-.554-.017-.623a1 1 0 0 0-.565-.724c-.064-.03-.156-.057-.6-.168l-.06-.015a95.3 95.3 0 0 0-.082-.02c-.38-.095-.71-.177-1-.32a3 3 0 0 1-1.609-2.06C9 3.755 9 3.414 9 3.022V2a1 1 0 0 1 1-1z"/><path d="M8.438 7h7.124c1.12 0 2.051 0 2.8.092.789.097 1.498.308 2.106.818.276.23.521.499.73.795.45.64.634 1.375.72 2.203.082.802.082 1.804.082 3.037v.11c0 1.233 0 2.235-.083 3.037-.085.828-.269 1.563-.719 2.203a4.156 4.156 0 0 1-.73.795c-.608.51-1.317.721-2.106.818-.749.092-1.68.092-2.8.092H8.439c-1.12 0-2.051 0-2.8-.092-.789-.097-1.498-.308-2.106-.818a4.152 4.152 0 0 1-.73-.795c-.45-.64-.634-1.375-.72-2.203C2 16.29 2 15.288 2 14.055v-.11c0-1.233 0-2.235.083-3.037.085-.828.269-1.563.719-2.203a4.15 4.15 0 0 1 .73-.795c.608-.51 1.317-.721 2.106-.818C6.387 7 7.318 7 8.438 7zM5.882 9.077c-.586.072-.867.2-1.066.366a2.15 2.15 0 0 0-.378.413c-.17.24-.296.586-.366 1.258C4.002 11.8 4 12.699 4 14c0 1.3.001 2.2.072 2.886.07.672.196 1.017.366 1.258.11.158.238.296.378.413.199.167.48.294 1.066.366.613.075 1.42.077 2.618.077h7c1.198 0 2.006-.002 2.618-.077.586-.072.867-.2 1.066-.366.14-.117.267-.255.378-.413.17-.24.296-.586.366-1.258.07-.686.072-1.585.072-2.886 0-1.3-.001-2.2-.072-2.886-.07-.672-.196-1.017-.366-1.258a2.15 2.15 0 0 0-.378-.413c-.199-.167-.48-.294-1.066-.366C17.506 9.002 16.698 9 15.5 9h-7c-1.198 0-2.005.002-2.618.077z"/></svg>