<svg width="24" height="24" viewBox="0 0 24 24" xmlns="http://www.w3.org/2000/svg"><path d="M18.998 7.14c-1.512-1.948-4.547-1.622-5.609.604-.557 1.169-2.22 1.169-2.778 0C9.548 5.518 6.514 5.192 5 7.14l-.309.4a4.203 4.203 0 0 0 .443 5.64L12 19.627l6.865-6.449a4.203 4.203 0 0 0 .443-5.64l-.31-.399zM12 6.158c1.977-2.901 6.329-3.143 8.578-.244l.31.4a6.203 6.203 0 0 1-.654 8.323l-6.953 6.531-.02.02c-.101.095-.224.21-.341.3a1.5 1.5 0 0 1-.631.298c-.19.037-.387.037-.578 0a1.5 1.5 0 0 1-.63-.298c-.118-.09-.24-.205-.342-.3l-.02-.02-6.953-6.531a6.203 6.203 0 0 1-.654-8.324l.31-.399c2.249-2.9 6.601-2.657 8.578.244z"/></svg>