<svg width="24" height="24" viewBox="0 0 24 24" xmlns="http://www.w3.org/2000/svg"><path d="M10.805 10.867h-2.24c-.266 0-.354-.014-.49-.055-.366-.108-.652-.475-.652-.91 0-.435.286-.8.652-.91.136-.04.224-.054.49-.054h1.452V7.484c0-.265.014-.353.055-.489.109-.373.475-.652.91-.652.434 0 .801.285.91.652.04.136.055.224.055.49v2.24c0 .136 0 .271-.028.394a.992.992 0 0 1-.72.72 1.836 1.836 0 0 1-.394.028zm7.198 8.23H5.984V8.51c0-.136.047-.251.142-.345l3.117-3.119a.472.472 0 0 1 .347-.142h8.413v14.193zM4.163 6.73c-.319.319-.528.72-.57 1.168a3.423 3.423 0 0 0-.013.291v11.973c0 .156.007.237.013.298.055.51.517.972 1.026 1.026.061.006.143.013.298.013H19.07c.156 0 .238-.007.298-.013.51-.055.972-.517 1.026-1.026.007-.061.013-.142.013-.298V3.838c0-.157-.006-.238-.013-.3-.055-.509-.516-.97-1.025-1.024-.1-.01-.2-.015-.3-.014H9.27c-.109 0-.217.007-.292.014-.449.04-.849.252-1.168.57L4.164 6.731z"/></svg>