<svg width="24" height="24" viewBox="0 0 24 24" fill="none" xmlns="http://www.w3.org/2000/svg"><path fill-rule="evenodd" clip-rule="evenodd" d="M4.00001 7.00001C4.00001 6.02893 4.00213 5.40122 4.06431 4.93871C4.12263 4.50497 4.21677 4.36902 4.2929 4.2929C4.36902 4.21677 4.50497 4.12263 4.93871 4.06431C5.40122 4.00213 6.02893 4.00001 7.00001 4.00001L14.5351 4.00001C14.1948 4.58835 14 5.27143 14 6L14 19.6126L12 18.9459L9.00001 19.9459L6.00001 18.9459L4.00001 19.6126L4.00001 7.00001ZM16 6C16 4.89543 16.8954 4.00001 18 4.00001C19.1046 4.00001 20 4.89544 20 6V8L16 8V6ZM20.1429 10L16 10L16 22.3874L12 21.0541L9.00001 22.0541L6.00001 21.0541L2.00001 22.3874L2 6.93417C1.99995 6.04769 1.99991 5.28387 2.08215 4.67221C2.17028 4.0167 2.36902 3.38835 2.87868 2.87868C3.38835 2.36902 4.0167 2.17028 4.67221 2.08215C5.28387 1.99991 6.04769 1.99995 6.93418 2H6.9342L18 2.00001C20.2091 2 22 3.79087 22 6V8.14286L22 8.17055C22.0001 8.31257 22.0002 8.48206 21.9858 8.63052C21.9689 8.80416 21.9253 9.0511 21.7701 9.29805C21.6502 9.48885 21.4889 9.65019 21.2981 9.77009C21.0511 9.92525 20.8042 9.96891 20.6305 9.98575C20.4821 10.0001 20.3126 10.0001 20.1705 10L20.1429 10ZM7 6C6.44772 6 6 6.44772 6 7C6 7.55229 6.44772 8 7 8L11 8C11.5523 8 12 7.55229 12 7C12 6.44772 11.5523 6 11 6L7 6ZM9 11C9 11.5523 8.55229 12 8 12H7C6.44772 12 6 11.5523 6 11C6 10.4477 6.44772 10 7 10H8C8.55229 10 9 10.4477 9 11ZM7 14C6.44772 14 6 14.4477 6 15C6 15.5523 6.44772 16 7 16H10C10.5523 16 11 15.5523 11 15C11 14.4477 10.5523 14 10 14H7Z" fill="black"/></svg>
