<svg width="24" height="24" viewBox="0 0 24 24" xmlns="http://www.w3.org/2000/svg"><path d="M4.064 4.939C4.002 5.4 4 6.029 4 7v12.613l2-.667 3 1 3-1 2 .667V6c0-.729.195-1.412.535-2H7c-.971 0-1.599.002-2.061.064-.434.059-.57.153-.646.229-.076.076-.17.212-.229.646zM18 4a2 2 0 0 0-2 2v2h4V6a2 2 0 0 0-2-2zm-2 6h4.17c.143 0 .312 0 .46-.014.174-.017.421-.06.668-.216a1.5 1.5 0 0 0 .472-.472c.155-.247.199-.494.216-.667A4.94 4.94 0 0 0 22 8.17V6a4 4 0 0 0-4-4H6.934c-.886 0-1.65 0-2.262.082-.655.088-1.284.287-1.793.797-.51.51-.709 1.138-.797 1.793C2 5.284 2 6.048 2 6.934v15.453l4-1.333 3 1 3-1 4 1.333V10z"/><path d="M6 7a1 1 0 011-1h4a1 1 0 110 2H7a1 1 0 01-1-1zM9 11a1 1 0 01-1 1H7a1 1 0 110-2h1a1 1 0 011 1zM6 15a1 1 0 011-1h3a1 1 0 110 2H7a1 1 0 01-1-1z"/></svg>