<svg width="24" height="24" viewBox="0 0 24 24" xmlns="http://www.w3.org/2000/svg"><g><path d="M10.354 13.563H5.906a3.906 3.906 0 0 1 0-7.813h5.19a1.563 1.563 0 0 1 0 3.125h-5.27a.781.781 0 0 0 0 1.563h4.448a3.906 3.906 0 1 1 0 7.812H3.563a1.563 1.563 0 0 1 0-3.125h6.791a.781.781 0 1 0 0-1.563zm3.288 4.687a4.696 4.696 0 0 0 1.996-3.125h2.522c.424 0 .768-.35.768-.781V9.656a.775.775 0 0 0-.768-.781h-4.581c.365-.415.587-.962.587-1.563 0-.6-.222-1.147-.587-1.562h5.349C20.625 5.75 22 7.15 22 8.875v6.25c0 1.726-1.375 3.125-3.072 3.125h-5.286z"/></g><defs><clipPath><path d="M0 0h20v12.5H0z"/></clipPath></defs></svg>