<svg width="24" height="24" viewBox="0 0 24 24" xmlns="http://www.w3.org/2000/svg"><path d="M11.98 4.919c-.237.415-.502 1.07-.908 2.08l-.054.135c-.207.517-.39.974-.582 1.339-.208.395-.463.758-.852 1.047-.389.289-.81.428-1.248.514-.405.078-.894.122-1.45.172l-.26.023c-1.007.09-1.65.15-2.075.25l-.03.008.02.024c.278.338.753.774 1.501 1.454l.51.464c.342.311.644.586.878.839.253.273.474.57.62.945.048.123.088.248.12.375.096.391.086.761.037 1.13-.045.342-.134.74-.234 1.191l-.075.338c-.202.911-.334 1.514-.382 1.94a3.39 3.39 0 0 0-.008.075l.065-.04c.358-.235.837-.623 1.561-1.213l.034-.027c.434-.354.812-.662 1.15-.887.36-.242.746-.44 1.209-.514.313-.05.633-.05.946 0 .463.074.849.272 1.21.514.337.225.715.533 1.15.887l.033.027c.723.59 1.203.979 1.561 1.212l.065.041a3.503 3.503 0 0 0-.008-.075c-.048-.426-.18-1.029-.383-1.94l-.075-.338c-.1-.45-.188-.849-.233-1.19-.05-.37-.059-.74.038-1.131.031-.127.07-.252.119-.374.146-.376.367-.673.62-.946.234-.253.536-.528.877-.839l.511-.464c.748-.68 1.223-1.116 1.502-1.454l.02-.024-.031-.007c-.426-.1-1.068-.16-2.075-.251l-.26-.023c-.556-.05-1.046-.094-1.45-.172-.439-.086-.86-.225-1.248-.514-.39-.29-.644-.652-.852-1.047-.192-.365-.375-.822-.582-1.34L12.928 7c-.406-1.012-.67-1.666-.909-2.081A2.942 2.942 0 0 0 12 4.886l-.02.033zm.203-.287l-.01.008a.037.037 0 0 1 .01-.008zm-.357.008a.043.043 0 0 1-.009-.008l.01.008zm7.917 5.938l-.01-.006.01.006zm-.112-.312a.045.045 0 0 1 .003-.01l-.003.01zm-15.266-.01l.004.01a.036.036 0 0 1-.004-.01zm-.099.316a.04.04 0 0 1-.01.006l.01-.006zm5.98-6.648c.301-.526.825-1.238 1.754-1.238.928 0 1.453.712 1.754 1.238.316.551.633 1.34 1.001 2.259l.066.164c.23.572.375.932.514 1.195.127.243.21.325.274.373.064.047.167.103.436.155.292.057.678.093 1.293.148l.292.026c.907.081 1.695.152 2.278.29.572.134 1.348.423 1.63 1.26.282.838-.162 1.538-.536 1.99-.381.462-.967.995-1.64 1.608l-.54.49c-.379.345-.615.561-.783.743-.156.168-.203.256-.227.317a.987.987 0 0 0-.04.124c-.015.064-.027.162.003.39.033.245.102.558.212 1.057l.08.359c.186.838.343 1.546.404 2.09.056.49.092 1.23-.402 1.78-.257.287-.591.493-.962.594-.714.195-1.36-.17-1.772-.44-.459-.299-1.021-.757-1.686-1.299l-.046-.037c-.478-.39-.783-.636-1.032-.803-.234-.157-.345-.19-.413-.2a.999.999 0 0 0-.316 0c-.068.01-.179.043-.413.2-.25.167-.554.414-1.031.803l-.047.037c-.665.542-1.227 1-1.686 1.3-.413.269-1.058.634-1.772.439a2 2 0 0 1-.962-.593c-.494-.55-.458-1.291-.402-1.78.061-.545.218-1.253.404-2.091l.08-.359c.11-.499.179-.812.212-1.058.03-.227.018-.325.002-.389a.995.995 0 0 0-.04-.124c-.023-.061-.07-.149-.226-.317a13.966 13.966 0 0 0-.783-.742l-.482-.439-.057-.052c-.674-.613-1.26-1.146-1.64-1.607-.375-.453-.819-1.153-.537-1.99.281-.838 1.058-1.127 1.63-1.262.583-.137 1.371-.208 2.278-.29.026-.001.052-.004.077-.006l.215-.02c.615-.054 1.001-.09 1.293-.147.27-.052.372-.108.436-.155.064-.048.147-.13.274-.373.139-.263.284-.623.514-1.195l.037-.092.029-.072c.368-.919.684-1.708 1-2.26z"/></svg>