<svg width="24" height="24" viewBox="0 0 24 24" xmlns="http://www.w3.org/2000/svg"><path d="M21.497 5.979a7.74 7.74 0 0 1-2.224.61 3.883 3.883 0 0 0 1.703-2.143 7.752 7.752 0 0 1-2.46.94 3.866 3.866 0 0 0-2.825-1.223 3.872 3.872 0 0 0-3.772 4.754 10.99 10.99 0 0 1-7.98-4.045 3.855 3.855 0 0 0-.524 1.946 3.87 3.87 0 0 0 1.722 3.223 3.856 3.856 0 0 1-1.754-.484v.048a3.874 3.874 0 0 0 3.106 3.797 3.88 3.88 0 0 1-1.748.066 3.876 3.876 0 0 0 3.617 2.689 7.768 7.768 0 0 1-5.733 1.603A10.955 10.955 0 0 0 8.56 19.5c7.122 0 11.016-5.9 11.016-11.016 0-.168-.004-.335-.011-.5a7.866 7.866 0 0 0 1.932-2.005z"/></svg>